#!OML:ASF I:\salsa\salsa 7_09\Patient 1\Session 1\dancermale.ASF
:FULLY-SPECIFIED
:DEGREES
1813
root 8.94042 17.3519 3.02118 896.355 81.1548 532.517
lowerback -1.61855 3.12435 -1.61473
upperback 3.73505 4.46528 -2.95255
thorax 4.8844 2.2619 -1.8856
lowerneck 2.89373 -16.2148 -11.2808
upperneck 9.74208 -22.6515 10.7927
head 4.98777 -11.2185 3.7748
rclavicle -3.69739e-014 1.90833e-014
rhumerus -35.3408 -16.8459 -86.4268
rradius 37.0679
rwrist 20.4421
rhand -24.605 3.88559
rfingers 7.12502
rthumb 1.89308 -26.0858
lclavicle -3.69739e-014 1.90833e-014
lhumerus -54.6176 -27.7542 82.7222
lradius 74.3657
lwrist -1.71117
lhand -7.96958 54.3679
lfingers 7.12502
lthumb 17.9381 -276.439
rfemur -45.9782 -5.06745 19.9017
rtibia 76.5981
rfoot -8.13021 -10.302
rtoes -6.28266
lfemur -5.11503 3.44979 -26.0199
ltibia 13.4513
lfoot -17.57 5.79992
ltoes 8.21199
1814
root 9.0112 17.3478 3.01715 896.641 80.7929 532.834
lowerback -1.55057 2.90575 -1.61441
upperback 3.70146 4.16019 -2.84184
thorax 4.7935 2.10664 -1.79423
lowerneck 2.66586 -16.3371 -11.2063
upperneck 9.6771 -22.7927 10.7178
head 5.00282 -11.2821 3.71103
rclavicle 4.9398e-014 -3.97569e-015
rhumerus -35.8001 -17.0834 -86.3586
rradius 37.146
rwrist 20.5233
rhand -24.4244 3.81689
rfingers 7.12502
rthumb 2.06751 -26.1528
lclavicle 4.9398e-014 -3.97569e-015
lhumerus -53.191 -27.9881 83.1668
lradius 75.8275
lwrist -1.56108
lhand -8.23132 54.705
lfingers 7.12502
lthumb 17.6863 -276.079
rfemur -46.132 -5.0714 20.1217
rtibia 74.3979
rfoot -8.44532 -10.9699
rtoes -5.47348
lfemur -4.91262 3.19096 -25.9977
ltibia 13.6752
lfoot -18.006 5.83859
ltoes 9.33829
1815
root 9.08526 17.3436 3.00934 897.333 80.5339 533.507
lowerback -1.50692 2.71371 -1.52381
upperback 3.62143 3.88399 -2.72047
thorax 4.67488 1.96802 -1.73948
lowerneck 2.51305 -16.4837 -11.0992
upperneck 9.48638 -22.9636 10.6394
head 4.96574 -11.3653 3.65104
rclavicle -1.32192e-014 1.90833e-014
rhumerus -36.3704 -17.6384 -86.1822
rradius 37.1984
rwrist 20.931
rhand -24.2662 3.80531
rfingers 7.12502
rthumb 2.22024 -26.1629
lclavicle -1.32192e-014 1.90833e-014
lhumerus -51.6997 -28.2075 83.6574
lradius 77.0644
lwrist -1.51037
lhand -8.41421 54.8998
lfingers 7.12502
lthumb 17.5103 -275.869
rfemur -46.113 -5.04238 20.4101
rtibia 71.7703
rfoot -8.86479 -11.564
rtoes -5.76627
lfemur -4.72022 3.02817 -25.8961
ltibia 13.8147
lfoot -18.2295 5.813
ltoes 9.77296
1816
root 9.16371 17.3388 2.99749 898.304 80.3524 534.364
lowerback -1.54982 2.54854 -1.32146
upperback 3.46577 3.63928 -2.62789
thorax 4.53659 1.8485 -1.77196
lowerneck 2.66934 -16.474 -11.3245
upperneck 9.24244 -22.9964 11.0842
head 4.94747 -11.3832 3.82021
rclavicle 1.54058e-014 -1.51076e-014
rhumerus -37.0252 -18.3039 -85.9565
rradius 37.1354
rwrist 21.5589
rhand -24.214 4.01217
rfingers 7.12502
rthumb 2.27067 -25.9555
lclavicle 1.54058e-014 -1.51076e-014
lhumerus -50.2804 -28.3936 84.1899
lradius 78.1953
lwrist -1.5462
lhand -8.57938 55.0994
lfingers 7.12502
lthumb 17.3513 -275.655
rfemur -45.9522 -5.00186 20.749
rtibia 68.7508
rfoot -9.24906 -12.1746
rtoes -5.7073
lfemur -4.63584 2.89388 -25.7715
ltibia 14.0031
lfoot -18.4812 5.90574
ltoes 9.54217
1817
root 9.24871 17.3332 2.98673 898.643 80.1061 534.531
lowerback -1.71728 2.37233 -1.23777
upperback 3.31346 3.39139 -2.57266
thorax 4.4676 1.72383 -1.77133
lowerneck 2.93871 -16.5084 -11.8737
upperneck 9.02063 -23.1266 11.7492
head 4.9936 -11.4553 4.08561
rclavicle 3.03147e-014 4.77083e-015
rhumerus -37.5004 -18.6736 -85.8418
rradius 36.8387
rwrist 21.9723
rhand -24.2383 4.02683
rfingers 7.12502
rthumb 2.24717 -25.9411
lclavicle 3.03147e-014 4.77083e-015
lhumerus -48.8297 -28.5549 84.75
lradius 79.244
lwrist -1.58342
lhand -8.67097 55.3925
lfingers 7.12502
lthumb 17.2631 -275.354
rfemur -45.5802 -5.01491 20.9479
rtibia 65.3358
rfoot -9.71368 -12.8105
rtoes -5.19339
lfemur -4.5755 2.72101 -25.7689
ltibia 14.185
lfoot -18.7748 6.02732
ltoes 8.65069
1818
root 9.33915 17.3262 2.9743 898.468 79.8584 534.173
lowerback -1.95647 2.2008 -1.22239
upperback 3.20822 3.15875 -2.53575
thorax 4.48632 1.60528 -1.74735
lowerneck 2.96495 -16.5892 -12.1553
upperneck 8.86055 -23.2743 12.1266
head 5.03605 -11.5278 4.21344
rclavicle 5.26779e-015 -2.8625e-014
rhumerus -37.8405 -19.0413 -85.7682
rradius 36.4532
rwrist 22.1092
rhand -24.2169 4.10049
rfingers 7.12502
rthumb 2.26786 -25.8672
lclavicle 5.26779e-015 -2.8625e-014
lhumerus -47.2073 -28.7111 85.342
lradius 80.0249
lwrist -1.61261
lhand -8.88327 55.3726
lfingers 7.12502
lthumb 17.0588 -275.356
rfemur -45.0089 -5.06196 21.0311
rtibia 61.633
rfoot -10.2162 -13.4149
rtoes -5.42697
lfemur -4.4722 2.49687 -25.8752
ltibia 14.3061
lfoot -19.1588 6.14796
ltoes 8.75452
1819
root 9.4335 17.3175 2.95797 898.921 79.7261 534.435
lowerback -2.21661 2.06682 -1.04533
upperback 3.08684 2.96663 -2.47147
thorax 4.50793 1.51116 -1.78355
lowerneck 2.77599 -16.6737 -12.0598
upperneck 8.84187 -23.3729 12.1118
head 5.05984 -11.5664 4.16961
rclavicle 2.18663e-014 -1.66979e-014
rhumerus -38.2524 -19.5028 -85.6489
rradius 36.1337
rwrist 22.2372
rhand -24.2057 4.34843
rfingers 7.12502
rthumb 2.2787 -25.6192
lclavicle 2.18663e-014 -1.66979e-014
lhumerus -45.5588 -28.949 85.9605
lradius 80.5085
lwrist -1.77784
lhand -9.25061 54.8783
lfingers 7.12502
lthumb 16.7052 -275.821
rfemur -44.2812 -5.08697 21.2581
rtibia 57.7281
rfoot -10.4027 -13.9593
rtoes -5.56784
lfemur -4.36491 2.41271 -25.8365
ltibia 14.413
lfoot -19.5695 6.30261
ltoes 8.76231
1820
root 9.5337 17.3067 2.94011 899.606 79.6472 534.92
lowerback -2.48857 1.94867 -0.815324
upperback 2.92635 2.79102 -2.41077
thorax 4.49809 1.42669 -1.85341
lowerneck 2.56372 -16.7597 -11.8508
upperneck 8.95973 -23.4618 11.9237
head 5.09382 -11.5982 4.05879
rclavicle -1.58034e-014 -1.19271e-014
rhumerus -38.7746 -19.9211 -85.5188
rradius 35.89
rwrist 22.521
rhand -24.3115 4.27012
rfingers 7.12502
rthumb 2.17654 -25.6985
lclavicle -1.58034e-014 -1.19271e-014
lhumerus -43.95 -29.3476 86.5949
lradius 80.8634
lwrist -1.99402
lhand -9.48416 54.7698
lfingers 7.12502
lthumb 16.4803 -275.91
rfemur -43.4054 -5.15188 21.5459
rtibia 53.6698
rfoot -10.4706 -14.4438
rtoes -5.42257
lfemur -4.27391 2.45319 -25.7247
ltibia 14.5659
lfoot -19.9713 6.403
ltoes 8.0735
1821
root 9.6408 17.2939 2.92136 899.595 79.5757 534.696
lowerback -2.82025 1.81223 -0.709175
upperback 2.79402 2.60142 -2.38412
thorax 4.54646 1.33251 -1.88882
lowerneck 2.50032 -16.7934 -11.6851
upperneck 8.826 -23.4903 11.9043
head 5.04424 -11.6084 4.03074
rclavicle 1.97791e-014 -9.54166e-015
rhumerus -39.2717 -20.3336 -85.3855
rradius 35.6889
rwrist 22.8562
rhand -24.2104 4.16829
rfingers 7.12502
rthumb 2.27412 -25.7993
lclavicle 1.97791e-014 -9.54166e-015
lhumerus -42.2713 -29.7621 87.1852
lradius 81.1753
lwrist -2.2076
lhand -9.48087 55.4466
lfingers 7.12502
lthumb 16.4835 -275.234
rfemur -42.4157 -5.33905 21.6981
rtibia 49.5248
rfoot -10.7676 -14.9278
rtoes -5.69329
lfemur -4.16276 2.47806 -25.7615
ltibia 14.7136
lfoot -20.4692 6.541
ltoes 6.72787
1822
root 9.75436 17.2805 2.90179 899.194 79.5362 534.058
lowerback -3.21316 1.69076 -0.623406
upperback 2.68589 2.43781 -2.40361
thorax 4.65665 1.25222 -1.95804
lowerneck 2.47327 -16.811 -11.5625
upperneck 8.554 -23.5072 12.0469
head 4.96967 -11.614 4.06266
rclavicle -1.19271e-014 1.15295e-014
rhumerus -39.7446 -20.7849 -85.2969
rradius 35.5035
rwrist 23.1146
rhand -24.0291 4.26304
rfingers 7.12502
rthumb 2.44925 -25.7026
lclavicle -1.19271e-014 1.15295e-014
lhumerus -40.549 -30.1511 87.6971
lradius 81.3412
lwrist -2.64106
lhand -9.37854 56.0318
lfingers 7.12502
lthumb 16.582 -274.657
rfemur -41.3282 -5.63162 21.7925
rtibia 45.3247
rfoot -11.1284 -15.3253
rtoes -5.32349
lfemur -4.02143 2.57145 -25.867
ltibia 14.8165
lfoot -21.0005 6.82949
ltoes 4.83819
1823
root 9.87282 17.2653 2.88137 898.663 79.4518 533.298
lowerback -3.53876 1.56879 -0.502214
upperback 2.51377 2.271 -2.4811
thorax 4.66512 1.17267 -2.11176
lowerneck 2.45487 -16.866 -11.3986
upperneck 8.46337 -23.5771 12.083
head 4.93828 -11.6431 4.04811
rclavicle 3.55825e-014 -1.23246e-014
rhumerus -40.3586 -21.2238 -85.2649
rradius 35.3431
rwrist 23.421
rhand -23.9666 4.30504
rfingers 7.12502
rthumb 2.5096 -25.6599
lclavicle 3.55825e-014 -1.23246e-014
lhumerus -38.9146 -30.6441 88.2417
lradius 81.2724
lwrist -3.07489
lhand -9.66475 56.2535
lfingers 7.12502
lthumb 16.3065 -274.412
rfemur -40.1123 -6.08789 21.8793
rtibia 41.0918
rfoot -11.2479 -15.4309
rtoes -4.59794
lfemur -3.85911 2.81393 -25.9665
ltibia 14.9547
lfoot -21.4043 6.82877
ltoes 3.92111
